<?xml version="1.0" encoding="utf-8"?>
<!-- Generator: Adobe Illustrator 16.0.0, SVG Export Plug-In . SVG Version: 6.00 Build 0)  -->
<!DOCTYPE svg PUBLIC "-//W3C//DTD SVG 1.1//EN" "http://www.w3.org/Graphics/SVG/1.1/DTD/svg11.dtd">
<svg version="1.1" id="Layer_1" xmlns="http://www.w3.org/2000/svg" xmlns:xlink="http://www.w3.org/1999/xlink" x="0px" y="0px"
	 width="9772.441px" height="2931.018px" viewBox="0 0 9772.441 2931.018" enable-background="new 0 0 9772.441 2931.018"
	 xml:space="preserve">
<path fill="#231F20" d="M1465.501,0C656.146,0,0.001,656.127,0.001,1465.482c0,809.443,656.145,1465.535,1465.5,1465.535
	c809.393,0,1465.5-656.091,1465.5-1465.535c0-809.304-656.074-1465.412-1465.518-1465.412L1465.501,0z M2137.57,2113.646
	c-26.32,43.173-82.565,56.7-125.598,30.396c-344.138-210.332-777.297-257.845-1287.421-141.312
	c-49.157,11.271-98.157-19.547-109.356-68.688c-11.253-49.156,19.424-98.156,68.704-109.355
	c558.249-127.628,1037.101-72.695,1423.378,163.344c43.05,26.426,56.699,82.602,30.274,125.65L2137.57,2113.646z M2316.944,1714.666
	c-33.145,53.776-103.46,70.646-157.167,37.623c-393.837-242.094-994.384-312.217-1460.32-170.78
	c-60.428,18.252-124.25-15.804-142.59-76.125c-18.2-60.429,15.873-124.128,76.195-142.503
	c532.227-161.489,1193.865-83.266,1646.239,194.723c53.726,33.075,70.699,103.425,37.625,157.079L2316.944,1714.666
	L2316.944,1714.666z M2332.345,1299.146c-472.396-280.542-1251.6-306.337-1702.557-169.47
	c-72.414,21.962-148.994-18.918-170.938-91.333c-21.945-72.449,18.899-148.978,91.366-170.992
	c517.668-157.149,1378.229-126.787,1922.022,196.035c65.135,38.657,86.503,122.778,47.897,187.827
	c-38.5,65.135-122.851,86.606-187.774,47.933H2332.345z M3987.143,1352.905c-253.033-60.34-298.078-102.688-298.078-191.678
	c0-84.069,79.152-140.646,196.856-140.646c114.101,0,227.237,42.961,345.853,131.406c3.588,2.678,8.086,3.744,12.513,3.045
	c4.429-0.665,8.349-3.098,10.938-6.755l123.55-174.159c5.075-7.176,3.691-17.062-3.15-22.541
	c-141.172-113.276-300.142-168.35-485.955-168.35c-273.211,0-464.047,163.957-464.047,398.545
	c0,251.562,164.621,340.637,449.102,409.395c242.13,55.771,282.993,102.498,282.993,186.024
	c0,92.557-82.636,150.097-215.618,150.097c-147.699,0-268.169-49.752-402.937-166.46c-3.343-2.888-7.929-4.198-12.162-3.954
	c-4.463,0.367-8.541,2.432-11.375,5.846l-138.53,164.866c-5.811,6.843-5.075,17.062,1.646,22.979
	c156.799,139.981,349.647,213.92,557.759,213.92c294.401,0,484.644-160.86,484.644-409.832
	c0.525-210.175-125.299-326.55-433.475-401.521L3987.143,1352.905L3987.143,1352.905z M5087.19,1103.355
	c-127.609,0-232.277,50.26-318.587,153.247v-115.92c0-9.152-7.42-16.606-16.556-16.606h-226.571
	c-9.151,0-16.556,7.455-16.556,16.606v1288.033c0,9.151,7.402,16.606,16.556,16.606h226.571c9.135,0,16.556-7.454,16.556-16.606
	v-406.577c86.328,96.88,191.013,144.218,318.587,144.218c237.107,0,477.139-182.523,477.139-531.438
	c0.35-349.002-239.75-531.579-476.875-531.579L5087.19,1103.355L5087.19,1103.355z M5300.865,1634.918
	c0,177.678-109.444,301.664-266.158,301.664c-154.926,0-271.791-129.623-271.791-301.664c0-172.024,116.865-301.664,271.791-301.664
	c154.176-0.019,266.176,126.821,266.176,301.646L5300.865,1634.918L5300.865,1634.918z M6179.539,1103.355
	c-305.356,0-544.582,235.13-544.582,535.359c0,296.957,237.58,529.619,540.837,529.619c306.441,0,546.4-234.343,546.4-533.418
	c0-298.041-238.35-531.525-542.674-531.525L6179.539,1103.355L6179.539,1103.355z M6179.539,1938.35
	c-162.418,0-284.865-130.498-284.865-303.52c0-173.759,118.213-299.846,281.119-299.846c163.468,0,286.737,130.497,286.737,303.643
	c0,173.723-119,299.723-282.976,299.723H6179.539L6179.539,1938.35z M7374.261,1124.076h-249.321V869.172
	c0-9.136-7.385-16.591-16.537-16.591h-226.537c-9.17,0-16.606,7.455-16.606,16.591v254.904H6756.32
	c-9.117,0-16.503,7.454-16.503,16.607v194.722c0,9.135,7.387,16.606,16.503,16.606h108.938v503.843
	c0,203.612,101.342,306.845,301.209,306.845c81.271,0,148.696-16.783,212.24-52.814c5.162-2.889,8.363-8.452,8.363-14.367v-185.43
	c0-5.724-2.977-11.131-7.875-14.123c-4.936-3.098-11.077-3.254-16.135-0.752c-43.646,21.963-85.837,32.095-133,32.095
	c-72.693,0-105.122-33.005-105.122-106.978v-468.229h249.321c9.152,0,16.521-7.455,16.521-16.607v-194.705
	c0.351-9.152-7-16.606-16.274-16.606L7374.261,1124.076z M8242.961,1125.073v-31.308c0-92.104,35.314-133.176,114.52-133.176
	c47.232,0,85.173,9.381,127.662,23.556c5.233,1.646,10.692,0.823,14.945-2.311c4.375-3.133,6.843-8.155,6.843-13.475V777.436
	c0-7.298-4.69-13.755-11.726-15.908c-44.888-13.353-102.322-27.055-188.316-27.055c-209.267,0-319.883,117.845-319.883,340.672
	v47.95h-108.851c-9.135,0-16.625,7.455-16.625,16.59v195.72c0,9.135,7.49,16.607,16.625,16.607h108.851v777.156
	c0,9.151,7.385,16.606,16.521,16.606h226.572c9.152,0,16.607-7.455,16.607-16.606v-777.103h211.54l324.046,776.964
	c-36.785,81.637-72.957,97.877-122.34,97.877c-39.918,0-81.953-11.918-124.934-35.438c-4.043-2.224-8.838-2.591-13.195-1.242
	c-4.324,1.521-7.961,4.742-9.8,8.941l-76.79,168.473c-3.658,7.963-0.525,17.309,7.14,21.438
	c80.167,43.417,152.532,61.949,241.974,61.949c167.297,0,259.77-77.928,341.285-287.577l393.066-1015.698
	c1.977-5.109,1.383-10.885-1.75-15.417c-3.113-4.498-8.137-7.21-13.633-7.21h-235.867c-7.066,0-13.387,4.497-15.695,11.13
	l-241.621,690.164l-264.652-690.618c-2.414-6.424-8.609-10.677-15.469-10.677h-387.102L8242.961,1125.073L8242.961,1125.073z
	 M7739.312,1124.076h-226.572c-9.152,0-16.607,7.454-16.607,16.607v988.484c0,9.152,7.455,16.607,16.607,16.607h226.572
	c9.135,0,16.606-7.455,16.606-16.607v-988.416c0.021-9.15-7.382-16.586-16.532-16.606c-0.031,0-0.062,0-0.094,0L7739.312,1124.076z
	 M7627.312,673.994c-89.758,0-162.592,72.659-162.592,162.418c0,89.81,72.853,162.558,162.592,162.558
	c89.724,0,162.486-72.748,162.486-162.558c0-89.74-72.799-162.418-162.398-162.418H7627.312L7627.312,673.994z M9612.159,1441.893
	c-89.672,0-159.441-72.013-159.441-159.46s70.68-160.282,160.281-160.282c89.672,0,159.441,71.995,159.441,159.372
	c0,87.448-70.699,160.37-160.297,160.37H9612.159z M9613.034,1138.006c-81.672,0-143.465,64.925-143.465,144.427
	c0,79.468,61.355,143.519,142.641,143.519c81.656,0,143.52-64.873,143.52-144.429c0-79.467-61.426-143.517-142.625-143.517h-0.072
	H9613.034z M9648.386,1297.92l45.098,63.141h-38.027l-40.602-57.925h-34.91v57.925h-31.832v-167.369h74.637
	c38.883,0,64.453,19.896,64.453,53.393c0.172,27.439-15.75,44.205-38.676,50.837L9648.386,1297.92L9648.386,1297.92z
	 M9621.435,1222.408h-41.512v52.938h41.512c20.719,0,33.09-10.133,33.09-26.495c0-17.22-12.424-26.441-33.074-26.441h-0.016
	V1222.408z"/>
</svg>
