<?xml version="1.0" encoding="utf-8"?>
<!-- Generator: Adobe Illustrator 16.0.0, SVG Export Plug-In . SVG Version: 6.00 Build 0)  -->
<!DOCTYPE svg PUBLIC "-//W3C//DTD SVG 1.1//EN" "http://www.w3.org/Graphics/SVG/1.1/DTD/svg11.dtd">
<svg version="1.1" id="Layer_1" xmlns="http://www.w3.org/2000/svg" xmlns:xlink="http://www.w3.org/1999/xlink" x="0px" y="0px"
	 width="314.6px" height="315.333px" viewBox="146.133 35.2 314.6 315.333" enable-background="new 146.133 35.2 314.6 315.333"
	 xml:space="preserve">
<g>
	<path fill="#FFFFFF" d="M460.733,94.6v196.533c0,16.134-5.867,30.067-17.6,41.801c-11.733,11.733-25.667,17.6-41.801,17.6h-195.8
		c-16.133,0-30.066-5.866-41.8-17.6s-17.6-25.667-17.6-41.801V94.6c0-16.133,5.867-30.067,17.6-41.8s25.667-17.6,41.8-17.6h195.8
		c16.134,0,30.067,5.866,41.801,17.6C454.866,64.533,460.733,78.467,460.733,94.6z M407.934,134.2
		c-7.334,3.667-16.134,5.866-24.934,6.6c9.533-5.133,15.4-13.2,19.066-24.2c-8.8,5.133-18.333,8.8-27.133,10.267
		c-8.066-8.8-19.066-13.2-31.533-13.2c-11.734,0-22,4.4-30.066,12.467c-8.067,8.067-12.467,18.333-12.467,30.067
		c0,3.667,0,7.333,0.733,9.533c-17.6-0.733-34.467-5.133-49.867-13.2c-15.4-8.066-28.6-18.333-39.6-31.533
		c-3.667,6.6-5.867,13.934-5.867,22c0,15.4,5.867,27.133,18.333,35.934c-6.6,0-13.2-2.2-20.533-5.134v0.733
		c0,10.267,3.667,19.067,10.267,27.133c6.6,8.067,15.4,13.201,24.933,14.668c-3.667,0.732-7.333,1.466-10.267,1.466
		c-1.467,0-4.4,0-8.067-0.733c2.934,8.801,8.067,15.4,15.4,21.268c7.333,5.866,15.4,8.799,24.933,8.799
		c-16.133,12.467-33.733,18.334-53.533,18.334c-3.667,0-6.6,0-10.267-0.733c20.533,12.467,41.8,19.066,66,19.066
		c15.4,0,29.333-2.2,43.267-7.333c13.2-5.133,24.933-11,34.467-19.801c9.533-8.066,17.6-17.6,24.933-27.866
		c6.601-10.267,11.734-21.267,15.4-33c3.667-11.733,5.133-22.733,5.133-34.466c0-2.2,0-4.4,0-5.867
		C395.467,150.333,402.066,143,407.934,134.2z"/>
</g>
</svg>
